{
  "asset": {
    "generator": "gltfeditor.com",
    "version": "2.0"
  },
  "buffers": [
    {
      "uri": "data:application/octet-stream;base64,",
      "byteLength": 96
    }
  ],
  "bufferViews": [
    {
      "buffer": 0,
      "byteOffset": 0,
      "byteLength": 60,
      "byteStride": 12,
      "target": 34962
    },
    {
      "buffer": 0,
      "byteOffset": 60,
      "byteLength": 36,
      "target": 34963
    }
  ],
  "accessors": [
    {
      "bufferView": 0,
      "byteOffset": 0,
      "componentType": 5126,
      "normalized": false,
      "count": 5,
      "min": [
        -25,
        -1.5308084466174516e-15,
        -25
      ],
      "max": [
        25,
        5,
        25
      ],
      "type": "VEC3"
    },
    {
      "bufferView": 1,
      "byteOffset": 0,
      "componentType": 5123,
      "normalized": false,
      "count": 18,
      "min": [
        0
      ],
      "max": [
        4
      ],
      "type": "SCALAR"
    }
  ],
  "scene": 0,
  "scenes": [
    {
      "nodes": [
        1
      ],
      "name": "Scene"
    }
  ],
  "nodes": [
    {
      "name": "Node1",
      "extensions": {
        "KHR_node_visibility": {
          "visible": true
        }
      },
      "mesh": 0
    },
    {
      "name": "Node0",
      "children": [
        0
      ],
      "extensions": {
        "KHR_node_visibility": {
          "visible": true
        }
      }
    }
  ],
  "meshes": [
    {
      "primitives": [
        {
          "material": 0,
          "mode": 4,
          "attributes": {
            "POSITION": 0
          },
          "indices": 1
        }
      ]
    }
  ],
  "materials": [
    {
      "name": "FFA0A0A0",
      "pbrMetallicRoughness": {
        "baseColorFactor": [
          0.2980392156862745,
          0.6862745098039216,
          0.30980392156862746,
          1
        ],
        "metallicFactor": 1,
        "roughnessFactor": 0.20000000000000007
      },
      "emissiveFactor": [
        0,
        0,
        0
      ],
      "alphaMode": "BLEND",
      "doubleSided": true,
      "extensions": {
        "KHR_materials_emissive_strength": {
          "emissiveStrength": 0.9980000000000024
        }
      }
    }
  ],
  "extensionsUsed": [
    "KHR_node_visibility",
    "KHR_materials_emissive_strength"
  ]
}