{
  "asset": {
    "version": "2.0",
    "generator": "3dpea GLTFExporter"
  },
  "scenes": [
    {
      "name": "AuxScene",
      "nodes": [
        8
      ]
    }
  ],
  "scene": 0,
  "nodes": [
    {
      "name": "BodyMesh",
      "mesh": 0
    },
    {
      "name": "BodyMesh_1",
      "mesh": 1
    },
    {
      "matrix": [
        1,
        0,
        0,
        0,
        0,
        1,
        0,
        0,
        0,
        0,
        1,
        0,
        0.7163370251655579,
        0.3112524151802063,
        1.3360675573349,
        1
      ],
      "name": "WheelFL",
      "extras": {
        "name": "WheelFL"
      },
      "mesh": 2
    },
    {
      "matrix": [
        1,
        0,
        0,
        0,
        0,
        1,
        0,
        0,
        0,
        0,
        1,
        0,
        -0.7163370251655579,
        0.31125253438949585,
        1.3360675573349,
        1
      ],
      "name": "WheelFR",
      "extras": {
        "name": "WheelFR"
      },
      "mesh": 3
    },
    {
      "matrix": [
        1,
        0,
        0,
        0,
        0,
        1,
        0,
        0,
        0,
        0,
        1,
        0,
        0.7032262682914734,
        0.3502141833305359,
        -1.1005102396011353,
        1
      ],
      "name": "WheelRL",
      "extras": {
        "name": "WheelRL"
      },
      "mesh": 4
    },
    {
      "matrix": [
        1,
        0,
        0,
        0,
        0,
        1,
        0,
        0,
        0,
        0,
        1,
        0,
        -0.7032262682914734,
        0.35021427273750305,
        -1.1005102396011353,
        1
      ],
      "name": "WheelRR",
      "extras": {
        "name": "WheelRR"
      },
      "mesh": 5
    },
    {
      "name": "Glass",
      "extras": {
        "name": "Glass"
      },
      "mesh": 6
    },
    {
      "name": "Body",
      "extras": {
        "name": "Body"
      },
      "children": [
        0,
        1,
        2,
        3,
        4,
        5,
        6
      ]
    },
    {
      "name": "sportcar",
      "extras": {
        "additionalData": []
      },
      "children": [
        7
      ]
    }
  ],
  "bufferViews": [
    {
      "buffer": 0,
      "byteOffset": 0,
      "byteLength": 12336,
      "target": 34962,
      "byteStride": 12
    },
    {
      "buffer": 0,
      "byteOffset": 12336,
      "byteLength": 12336,
      "target": 34962,
      "byteStride": 12
    },
    {
      "buffer": 0,
      "byteOffset": 24672,
      "byteLength": 8224,
      "target": 34962,
      "byteStride": 8
    },
    {
      "buffer": 0,
      "byteOffset": 32896,
      "byteLength": 7560,
      "target": 34963
    },
    {
      "buffer": 0,
      "byteOffset": 40456,
      "byteLength": 52704,
      "target": 34962,
      "byteStride": 12
    },
    {
      "buffer": 0,
      "byteOffset": 93160,
      "byteLength": 52704,
      "target": 34962,
      "byteStride": 12
    },
    {
      "buffer": 0,
      "byteOffset": 145864,
      "byteLength": 35136,
      "target": 34962,
      "byteStride": 8
    },
    {
      "buffer": 0,
      "byteOffset": 181000,
      "byteLength": 31200,
      "target": 34963
    },
    {
      "buffer": 0,
      "byteOffset": 212200,
      "byteLength": 9960,
      "target": 34962,
      "byteStride": 12
    },
    {
      "buffer": 0,
      "byteOffset": 222160,
      "byteLength": 9960,
      "target": 34962,
      "byteStride": 12
    },
    {
      "buffer": 0,
      "byteOffset": 232120,
      "byteLength": 6640,
      "target": 34962,
      "byteStride": 8
    },
    {
      "buffer": 0,
      "byteOffset": 238760,
      "byteLength": 4800,
      "target": 34963
    },
    {
      "buffer": 0,
      "byteOffset": 243560,
      "byteLength": 9936,
      "target": 34962,
      "byteStride": 12
    },
    {
      "buffer": 0,
      "byteOffset": 253496,
      "byteLength": 9936,
      "target": 34962,
      "byteStride": 12
    },
    {
      "buffer": 0,
      "byteOffset": 263432,
      "byteLength": 6624,
      "target": 34962,
      "byteStride": 8
    },
    {
      "buffer": 0,
      "byteOffset": 270056,
      "byteLength": 4800,
      "target": 34963
    },
    {
      "buffer": 0,
      "byteOffset": 274856,
      "byteLength": 9984,
      "target": 34962,
      "byteStride": 12
    },
    {
      "buffer": 0,
      "byteOffset": 284840,
      "byteLength": 9984,
      "target": 34962,
      "byteStride": 12
    },
    {
      "buffer": 0,
      "byteOffset": 294824,
      "byteLength": 6656,
      "target": 34962,
      "byteStride": 8
    },
    {
      "buffer": 0,
      "byteOffset": 301480,
      "byteLength": 4800,
      "target": 34963
    },
    {
      "buffer": 0,
      "byteOffset": 306280,
      "byteLength": 9816,
      "target": 34962,
      "byteStride": 12
    },
    {
      "buffer": 0,
      "byteOffset": 316096,
      "byteLength": 9816,
      "target": 34962,
      "byteStride": 12
    },
    {
      "buffer": 0,
      "byteOffset": 325912,
      "byteLength": 6544,
      "target": 34962,
      "byteStride": 8
    },
    {
      "buffer": 0,
      "byteOffset": 332456,
      "byteLength": 4800,
      "target": 34963
    },
    {
      "buffer": 0,
      "byteOffset": 337256,
      "byteLength": 3120,
      "target": 34962,
      "byteStride": 12
    },
    {
      "buffer": 0,
      "byteOffset": 340376,
      "byteLength": 3120,
      "target": 34962,
      "byteStride": 12
    },
    {
      "buffer": 0,
      "byteOffset": 343496,
      "byteLength": 2080,
      "target": 34962,
      "byteStride": 8
    },
    {
      "buffer": 0,
      "byteOffset": 345576,
      "byteLength": 2544,
      "target": 34963
    }
  ],
  "buffers": [
    {
      "byteLength": 348120,
      "uri": "data:application/octet-stream;base64,"
    }
  ],
  "accessors": [
    {
      "bufferView": 0,
      "componentType": 5126,
      "count": 1028,
      "max": [
        0.7636385560035706,
        1.2758541107177734,
        0.6617040634155273
      ],
      "min": [
        -0.7636280655860901,
        0.2785170078277588,
        -1.311888575553894
      ],
      "type": "VEC3"
    },
    {
      "bufferView": 1,
      "componentType": 5126,
      "count": 1028,
      "max": [
        1,
        1,
        1
      ],
      "min": [
        -1,
        -1,
        -1
      ],
      "type": "VEC3"
    },
    {
      "bufferView": 2,
      "componentType": 5126,
      "count": 1028,
      "max": [
        0.9981731176376343,
        0.9982393383979797
      ],
      "min": [
        0.0017825663089752197,
        0.017907798290252686
      ],
      "type": "VEC2"
    },
    {
      "bufferView": 3,
      "componentType": 5125,
      "count": 1890,
      "max": [
        1027
      ],
      "min": [
        0
      ],
      "type": "SCALAR"
    },
    {
      "bufferView": 4,
      "componentType": 5126,
      "count": 4392,
      "max": [
        0.9666002988815308,
        1.3176578283309937,
        2.204751491546631
      ],
      "min": [
        -0.966627836227417,
        0.14671389758586884,
        -1.875124454498291
      ],
      "type": "VEC3"
    },
    {
      "bufferView": 5,
      "componentType": 5126,
      "count": 4392,
      "max": [
        1,
        1,
        1
      ],
      "min": [
        -1,
        -1,
        -1
      ],
      "type": "VEC3"
    },
    {
      "bufferView": 6,
      "componentType": 5126,
      "count": 4392,
      "max": [
        0.9952953457832336,
        0.9952371120452881
      ],
      "min": [
        0.0047051385045051575,
        0.05205976963043213
      ],
      "type": "VEC2"
    },
    {
      "bufferView": 7,
      "componentType": 5125,
      "count": 7800,
      "max": [
        4391
      ],
      "min": [
        0
      ],
      "type": "SCALAR"
    },
    {
      "bufferView": 8,
      "componentType": 5126,
      "count": 830,
      "max": [
        0.2030102014541626,
        0.31385427713394165,
        0.31385430693626404
      ],
      "min": [
        -0.005574643611907959,
        -0.31385427713394165,
        -0.31385424733161926
      ],
      "type": "VEC3"
    },
    {
      "bufferView": 9,
      "componentType": 5126,
      "count": 830,
      "max": [
        1,
        1,
        1
      ],
      "min": [
        -0.9998394250869751,
        -1,
        -1
      ],
      "type": "VEC3"
    },
    {
      "bufferView": 10,
      "componentType": 5126,
      "count": 830,
      "max": [
        0.9913139343261719,
        0.9952580332756042
      ],
      "min": [
        0.1563502848148346,
        0.026652872562408447
      ],
      "type": "VEC2"
    },
    {
      "bufferView": 11,
      "componentType": 5125,
      "count": 1200,
      "max": [
        829
      ],
      "min": [
        0
      ],
      "type": "SCALAR"
    },
    {
      "bufferView": 12,
      "componentType": 5126,
      "count": 828,
      "max": [
        0.005578339099884033,
        0.31385424733161926,
        0.31385430693626404
      ],
      "min": [
        -0.20300650596618652,
        -0.31385430693626404,
        -0.31385424733161926
      ],
      "type": "VEC3"
    },
    {
      "bufferView": 13,
      "componentType": 5126,
      "count": 828,
      "max": [
        0.9998394250869751,
        1,
        1
      ],
      "min": [
        -1,
        -1,
        -1
      ],
      "type": "VEC3"
    },
    {
      "bufferView": 14,
      "componentType": 5126,
      "count": 828,
      "max": [
        0.9748088121414185,
        0.9952628016471863
      ],
      "min": [
        0.07235938310623169,
        0.03613215684890747
      ],
      "type": "VEC2"
    },
    {
      "bufferView": 15,
      "componentType": 5125,
      "count": 1200,
      "max": [
        827
      ],
      "min": [
        0
      ],
      "type": "SCALAR"
    },
    {
      "bufferView": 16,
      "componentType": 5126,
      "count": 832,
      "max": [
        0.2467258870601654,
        0.35241958498954773,
        0.3524196445941925
      ],
      "min": [
        -0.00547260046005249,
        -0.3524196445941925,
        -0.35241958498954773
      ],
      "type": "VEC3"
    },
    {
      "bufferView": 17,
      "componentType": 5126,
      "count": 832,
      "max": [
        1,
        1,
        1
      ],
      "min": [
        -0.9998844265937805,
        -1,
        -1
      ],
      "type": "VEC3"
    },
    {
      "bufferView": 18,
      "componentType": 5126,
      "count": 832,
      "max": [
        0.9952625036239624,
        0.9953754544258118
      ],
      "min": [
        0.0047401487827301025,
        0.007997572422027588
      ],
      "type": "VEC2"
    },
    {
      "bufferView": 19,
      "componentType": 5125,
      "count": 1200,
      "max": [
        831
      ],
      "min": [
        0
      ],
      "type": "SCALAR"
    },
    {
      "bufferView": 20,
      "componentType": 5126,
      "count": 818,
      "max": [
        0.005459815263748169,
        0.35241958498954773,
        0.3524196445941925
      ],
      "min": [
        -0.24673867225646973,
        -0.3524196445941925,
        -0.35241958498954773
      ],
      "type": "VEC3"
    },
    {
      "bufferView": 21,
      "componentType": 5126,
      "count": 818,
      "max": [
        0.9998844861984253,
        1,
        1
      ],
      "min": [
        -1,
        -1,
        -1
      ],
      "type": "VEC3"
    },
    {
      "bufferView": 22,
      "componentType": 5126,
      "count": 818,
      "max": [
        0.9937582015991211,
        0.9951522946357727
      ],
      "min": [
        0.00474056601524353,
        0.07689958810806274
      ],
      "type": "VEC2"
    },
    {
      "bufferView": 23,
      "componentType": 5125,
      "count": 1200,
      "max": [
        817
      ],
      "min": [
        0
      ],
      "type": "SCALAR"
    },
    {
      "bufferView": 24,
      "componentType": 5126,
      "count": 260,
      "max": [
        0.8748920559883118,
        1.2698540687561035,
        1.9968050718307495
      ],
      "min": [
        -0.8748535513877869,
        0.6310759782791138,
        -1.706344723701477
      ],
      "type": "VEC3"
    },
    {
      "bufferView": 25,
      "componentType": 5126,
      "count": 260,
      "max": [
        0.9591060876846313,
        0.9918479323387146,
        0.7693456411361694
      ],
      "min": [
        -0.9591061472892761,
        -0.9858313798904419,
        -0.994421660900116
      ],
      "type": "VEC3"
    },
    {
      "bufferView": 26,
      "componentType": 5126,
      "count": 260,
      "max": [
        0.9855994582176208,
        0.9947814345359802
      ],
      "min": [
        0.005518448539078236,
        0.005520462989807129
      ],
      "type": "VEC2"
    },
    {
      "bufferView": 27,
      "componentType": 5125,
      "count": 636,
      "max": [
        259
      ],
      "min": [
        0
      ],
      "type": "SCALAR"
    }
  ],
  "materials": [
    {
      "pbrMetallicRoughness": {
        "metallicFactor": 0.8,
        "roughnessFactor": 1,
        "baseColorTexture": {
          "index": 0
        }
      },
      "doubleSided": true,
      "name": "Interior"
    },
    {
      "pbrMetallicRoughness": {
        "metallicFactor": 0.8,
        "roughnessFactor": 1,
        "baseColorTexture": {
          "index": 1
        }
      },
      "doubleSided": true,
      "name": "Body"
    },
    {
      "pbrMetallicRoughness": {
        "metallicFactor": 0.8,
        "roughnessFactor": 1,
        "baseColorTexture": {
          "index": 2
        }
      },
      "doubleSided": true,
      "name": "Wheels"
    },
    {
      "pbrMetallicRoughness": {
        "metallicFactor": 0.8,
        "roughnessFactor": 1,
        "baseColorTexture": {
          "index": 2
        }
      },
      "doubleSided": true,
      "name": "Wheels"
    },
    {
      "pbrMetallicRoughness": {
        "metallicFactor": 0.8,
        "roughnessFactor": 1,
        "baseColorTexture": {
          "index": 2
        }
      },
      "doubleSided": true,
      "name": "Wheels"
    },
    {
      "pbrMetallicRoughness": {
        "metallicFactor": 0.8,
        "roughnessFactor": 1,
        "baseColorTexture": {
          "index": 2
        }
      },
      "doubleSided": true,
      "name": "Wheels"
    },
    {
      "pbrMetallicRoughness": {
        "metallicFactor": 0.8,
        "roughnessFactor": 1,
        "baseColorTexture": {
          "index": 3
        }
      },
      "alphaMode": "MASK",
      "alphaCutoff": 0.1,
      "name": "Glass"
    }
  ],
  "textures": [
    {
      "sampler": 0,
      "source": 0
    },
    {
      "sampler": 1,
      "source": 1
    },
    {
      "sampler": 2,
      "source": 2
    },
    {
      "sampler": 3,
      "source": 3
    }
  ],
  "samplers": [
    {
      "magFilter": 9729,
      "minFilter": 9987,
      "wrapS": 10497,
      "wrapT": 10497
    },
    {
      "magFilter": 9729,
      "minFilter": 9987,
      "wrapS": 10497,
      "wrapT": 10497
    },
    {
      "magFilter": 9729,
      "minFilter": 9987,
      "wrapS": 10497,
      "wrapT": 10497
    },
    {
      "magFilter": 9729,
      "minFilter": 9987,
      "wrapS": 10497,
      "wrapT": 10497
    }
  ],
  "images": [
    {
      "mimeType": "image/png",
      "uri": "data:image/png;base64,"
    },
    {
      "mimeType": "image/png",
      "uri": "data:image/png;base64,"
    },
    {
      "mimeType": "image/png",
      "uri": "data:image/png;base64,"
    },
    {
      "mimeType": "image/png",
      "uri": "data:image/png;base64,"
    }
  ],
  "meshes": [
    {
      "primitives": [
        {
          "mode": 4,
          "attributes": {
            "POSITION": 0,
            "NORMAL": 1,
            "TEXCOORD_0": 2
          },
          "indices": 3,
          "material": 0
        }
      ]
    },
    {
      "primitives": [
        {
          "mode": 4,
          "attributes": {
            "POSITION": 4,
            "NORMAL": 5,
            "TEXCOORD_0": 6
          },
          "indices": 7,
          "material": 1
        }
      ]
    },
    {
      "primitives": [
        {
          "mode": 4,
          "attributes": {
            "POSITION": 8,
            "NORMAL": 9,
            "TEXCOORD_0": 10
          },
          "indices": 11,
          "material": 2
        }
      ]
    },
    {
      "primitives": [
        {
          "mode": 4,
          "attributes": {
            "POSITION": 12,
            "NORMAL": 13,
            "TEXCOORD_0": 14
          },
          "indices": 15,
          "material": 3
        }
      ]
    },
    {
      "primitives": [
        {
          "mode": 4,
          "attributes": {
            "POSITION": 16,
            "NORMAL": 17,
            "TEXCOORD_0": 18
          },
          "indices": 19,
          "material": 4
        }
      ]
    },
    {
      "primitives": [
        {
          "mode": 4,
          "attributes": {
            "POSITION": 20,
            "NORMAL": 21,
            "TEXCOORD_0": 22
          },
          "indices": 23,
          "material": 5
        }
      ]
    },
    {
      "primitives": [
        {
          "mode": 4,
          "attributes": {
            "POSITION": 24,
            "NORMAL": 25,
            "TEXCOORD_0": 26
          },
          "indices": 27,
          "material": 6
        }
      ]
    }
  ]
}